<mxfile host="app.diagrams.net" modified="2023-03-07T21:04:02.177Z" agent="5.0 (Windows)" etag="WU6dde1QgbMZqMrOuEjM" version="21.0.2" type="github">
  <diagram name="UI" id="D-m7faE2fxigUxJRYWDk">
    <mxGraphModel dx="1178" dy="804" grid="1" gridSize="10" guides="1" tooltips="1" connect="1" arrows="1" fold="1" page="1" pageScale="1" pageWidth="850" pageHeight="1100" math="0" shadow="0">
      <root>
        <mxCell id="0" />
        <mxCell id="1" parent="0" />
        <mxCell id="mBuUw854CCXQ41-mHmJW-2" value="" style="rounded=0;whiteSpace=wrap;html=1;fillColor=none;" vertex="1" parent="1">
          <mxGeometry x="120" y="80" width="480" height="290" as="geometry" />
        </mxCell>
        <mxCell id="mBuUw854CCXQ41-mHmJW-3" value="The main page" style="text;html=1;strokeColor=none;fillColor=none;align=left;verticalAlign=middle;whiteSpace=wrap;rounded=0;" vertex="1" parent="1">
          <mxGeometry x="120" y="20" width="90" height="30" as="geometry" />
        </mxCell>
        <mxCell id="mBuUw854CCXQ41-mHmJW-4" value="Url: https://bookgenerator" style="text;html=1;strokeColor=none;fillColor=none;align=left;verticalAlign=middle;whiteSpace=wrap;rounded=0;" vertex="1" parent="1">
          <mxGeometry x="120" y="50" width="150" height="30" as="geometry" />
        </mxCell>
        <mxCell id="mBuUw854CCXQ41-mHmJW-5" value="Book generator" style="text;html=1;strokeColor=none;fillColor=none;align=center;verticalAlign=middle;whiteSpace=wrap;rounded=0;fontSize=19;" vertex="1" parent="1">
          <mxGeometry x="285" y="130" width="150" height="30" as="geometry" />
        </mxCell>
        <mxCell id="mBuUw854CCXQ41-mHmJW-6" value="Enter a title for the book" style="text;html=1;strokeColor=none;fillColor=none;align=center;verticalAlign=middle;whiteSpace=wrap;rounded=0;" vertex="1" parent="1">
          <mxGeometry x="286.25" y="160" width="147.5" height="30" as="geometry" />
        </mxCell>
        <mxCell id="mBuUw854CCXQ41-mHmJW-7" value="Fair tales about microservices" style="rounded=0;whiteSpace=wrap;html=1;fillColor=#f5f5f5;fontColor=#333333;strokeColor=#666666;" vertex="1" parent="1">
          <mxGeometry x="160" y="200" width="280" height="30" as="geometry" />
        </mxCell>
        <mxCell id="mBuUw854CCXQ41-mHmJW-8" value="Generate" style="rounded=0;whiteSpace=wrap;html=1;shadow=0;fillColor=#dae8fc;strokeColor=#6c8ebf;" vertex="1" parent="1">
          <mxGeometry x="450" y="200" width="110" height="30" as="geometry" />
        </mxCell>
        <mxCell id="mBuUw854CCXQ41-mHmJW-9" value="Waiting page" style="text;html=1;strokeColor=none;fillColor=none;align=left;verticalAlign=middle;whiteSpace=wrap;rounded=0;" vertex="1" parent="1">
          <mxGeometry x="120" y="420" width="80" height="30" as="geometry" />
        </mxCell>
        <mxCell id="mBuUw854CCXQ41-mHmJW-10" value="Url: https://bookgenerator/status/book_id" style="text;html=1;strokeColor=none;fillColor=none;align=left;verticalAlign=middle;whiteSpace=wrap;rounded=0;" vertex="1" parent="1">
          <mxGeometry x="120" y="450" width="260" height="30" as="geometry" />
        </mxCell>
        <mxCell id="mBuUw854CCXQ41-mHmJW-11" value="" style="rounded=0;whiteSpace=wrap;html=1;fillColor=none;" vertex="1" parent="1">
          <mxGeometry x="120" y="480" width="480" height="290" as="geometry" />
        </mxCell>
        <mxCell id="mBuUw854CCXQ41-mHmJW-12" value="" style="sketch=0;pointerEvents=1;shadow=0;dashed=0;html=1;strokeColor=none;fillColor=#505050;labelPosition=center;verticalLabelPosition=bottom;verticalAlign=top;outlineConnect=0;align=center;shape=mxgraph.office.concepts.clock;" vertex="1" parent="1">
          <mxGeometry x="337.5" y="602.5" width="45" height="45" as="geometry" />
        </mxCell>
        <mxCell id="mBuUw854CCXQ41-mHmJW-13" value="Book is generating" style="text;html=1;strokeColor=none;fillColor=none;align=center;verticalAlign=middle;whiteSpace=wrap;rounded=0;fontSize=19;" vertex="1" parent="1">
          <mxGeometry x="250" y="550" width="220" height="30" as="geometry" />
        </mxCell>
        <mxCell id="mBuUw854CCXQ41-mHmJW-14" value="" style="rounded=0;whiteSpace=wrap;html=1;fillColor=none;" vertex="1" parent="1">
          <mxGeometry x="120" y="880" width="480" height="290" as="geometry" />
        </mxCell>
        <mxCell id="mBuUw854CCXQ41-mHmJW-15" value="Result page" style="text;html=1;strokeColor=none;fillColor=none;align=left;verticalAlign=middle;whiteSpace=wrap;rounded=0;" vertex="1" parent="1">
          <mxGeometry x="120" y="820" width="80" height="30" as="geometry" />
        </mxCell>
        <mxCell id="mBuUw854CCXQ41-mHmJW-16" value="Url: https://bookgenerator/result/book_id" style="text;html=1;strokeColor=none;fillColor=none;align=left;verticalAlign=middle;whiteSpace=wrap;rounded=0;" vertex="1" parent="1">
          <mxGeometry x="120" y="850" width="260" height="30" as="geometry" />
        </mxCell>
        <mxCell id="mBuUw854CCXQ41-mHmJW-18" value="&lt;font style=&quot;font-size: 19px;&quot;&gt;&lt;font style=&quot;font-size: 19px;&quot;&gt;Download the book&lt;/font&gt;&lt;/font&gt;" style="text;html=1;align=center;verticalAlign=middle;whiteSpace=wrap;rounded=0;fontSize=19;fontStyle=4;fillColor=none;fontColor=#0080ff;" vertex="1" parent="1">
          <mxGeometry x="270" y="1010" width="180" height="30" as="geometry" />
        </mxCell>
      </root>
    </mxGraphModel>
  </diagram>
</mxfile>
